<svg width="27" height="35" viewBox="0 0 27 35" fill="none" xmlns="http://www.w3.org/2000/svg">
<g clip-path="url(#clip0_208_8)">
<path d="M13.8302 27.9775C13.8165 27.9636 13.8027 27.9497 13.8027 27.9358C13.789 27.9219 13.789 27.9219 13.7752 27.908C13.7615 27.908 13.7615 27.8941 13.7477 27.8941C13.734 27.8802 13.7202 27.8802 13.7065 27.8663C13.6927 27.8663 13.679 27.8524 13.6652 27.8524C13.6515 27.8524 13.6377 27.8385 13.6377 27.8385C13.624 27.8385 13.6102 27.8385 13.5965 27.8246C13.5827 27.8246 13.569 27.8246 13.5552 27.8246C13.5415 27.8246 13.5278 27.8246 13.514 27.8246C13.5003 27.8246 13.4865 27.8246 13.4728 27.8246C13.459 27.8246 13.4453 27.8246 13.4315 27.8246C13.4178 27.8246 13.404 27.8246 13.3903 27.8385C13.3765 27.8385 13.3628 27.8524 13.3628 27.8524C13.349 27.8524 13.3353 27.8663 13.3215 27.8663C13.3078 27.8663 13.294 27.8802 13.2803 27.8941C13.2665 27.8941 13.2665 27.908 13.2528 27.908C13.2391 27.9219 13.2391 27.9219 13.2253 27.9358C13.2116 27.9497 13.1978 27.9636 13.1978 27.9636L12.0843 29.3681C11.9468 29.5489 11.9743 29.7992 12.153 29.9382C12.2217 29.9938 12.318 30.0216 12.4005 30.0216C12.5242 30.0216 12.6342 29.966 12.7166 29.8687L12.7304 29.8548C13.1428 29.3403 13.9127 29.3403 14.3114 29.8548L14.3251 29.8687C14.4076 29.966 14.5176 30.0216 14.6413 30.0216C14.7238 30.0216 14.82 29.9938 14.8888 29.9382C15.0675 29.7992 15.095 29.535 14.9575 29.3681L13.8302 27.9775Z" fill="white"/>
<path d="M11.9743 4.22711C11.4106 4.22711 10.9432 4.67208 10.9157 5.24221L8.81233 6.02091C8.70235 6.06263 8.61986 6.15996 8.61986 6.28511V7.63394H6.92891C6.80518 7.17506 6.4065 6.84133 5.91159 6.84133C5.33419 6.84133 4.85303 7.31412 4.85303 7.91205C4.85303 8.49608 5.32045 8.98277 5.91159 8.98277C6.4065 8.98277 6.80518 8.64904 6.92891 8.19016H8.89481C9.04603 8.19016 9.16976 8.06501 9.16976 7.91205V6.47979L11.0257 5.78452C11.2044 6.13215 11.5618 6.36855 11.9605 6.36855C12.5379 6.36855 13.0191 5.89576 13.0191 5.29783C13.0328 4.7138 12.5517 4.22711 11.9743 4.22711Z" fill="white"/>
<path d="M27.0003 14.4336C27.0003 13.7801 26.9591 13.1265 26.8629 12.5008C26.8629 12.4591 26.8491 12.4174 26.8491 12.3756C26.0105 6.85519 21.8725 2.32202 16.4285 1.11225C16.291 0.486507 15.7411 0.0137232 15.0812 0.0137232C14.3113 0.0137232 13.6927 0.639466 13.6927 1.41817C13.6927 2.08563 14.1601 2.64185 14.7788 2.7809V7.91201C14.7788 7.99544 14.82 8.07887 14.8887 8.13449C14.93 8.1623 14.985 8.17621 15.04 8.17621C15.0674 8.17621 15.1087 8.17621 15.1362 8.1623L17.1708 7.3836C17.3083 7.59218 17.5145 7.73123 17.762 7.80076V10.2203C16.7309 11.4996 15.4524 12.6538 14.0914 13.6828L12.5379 10.0395C12.8266 9.84486 13.0191 9.52503 13.0191 9.14959C13.0191 8.56556 12.5516 8.07887 11.9605 8.07887C11.3831 8.07887 10.9019 8.55165 10.9019 9.14959C10.9019 9.73362 11.3694 10.2203 11.9605 10.2203C11.9742 10.2203 12.0017 10.2203 12.0155 10.2203L13.6377 14.0165C12.6891 14.7118 11.713 15.3375 10.7507 15.9076L6.13153 14.5032C6.07654 14.4893 6.02155 14.4893 5.96656 14.5171L4.59181 15.0594C4.39934 14.7952 4.09689 14.6283 3.73946 14.6283C3.16206 14.6283 2.6809 15.1011 2.6809 15.699C2.6809 16.2831 3.14831 16.7698 3.73946 16.7698C4.31686 16.7698 4.79802 16.297 4.79802 15.699C4.79802 15.6573 4.78427 15.6156 4.78427 15.5739L6.07654 15.0594L10.1046 16.2831C6.66769 18.2298 3.58823 19.3562 3.07957 19.5369L2.83212 19.6204C2.61216 19.4535 2.33721 19.3562 2.03476 19.3562C2.02101 19.3562 2.00727 19.3562 1.99352 19.3562C1.34738 17.8127 1.01744 16.1301 1.01744 14.4476C1.01744 13.6132 1.09993 12.7928 1.25115 12.0002H7.28633C7.41006 12.4591 7.80874 12.7928 8.30365 12.7928C8.88105 12.7928 9.36221 12.32 9.36221 11.7221C9.36221 11.1381 8.89479 10.6514 8.30365 10.6514C7.80874 10.6514 7.41006 10.9851 7.28633 11.444H1.37488C2.48843 6.8691 6.06279 3.21197 10.682 2.12735C10.9294 2.5306 11.3694 2.80871 11.8643 2.80871C12.6341 2.80871 13.2528 2.18297 13.2528 1.40427C13.2528 0.625562 12.6341 -0.000183105 11.8643 -0.000183105C11.1906 -0.000183105 10.6407 0.486507 10.5033 1.11225C4.44058 2.50279 0.00012207 8.02325 0.00012207 14.4197C0.00012207 16.2414 0.357558 18.063 1.05868 19.7316C0.79748 19.9819 0.646257 20.3435 0.646257 20.7328C0.646257 21.3585 1.04494 21.8731 1.59484 22.0677V27.5465C1.59484 27.6438 1.62233 27.7411 1.67732 27.8246L1.97977 28.0332L6.09029 30.9672V34.4714C6.09029 34.7634 6.324 34.9998 6.6127 34.9998H20.3603C20.649 34.9998 20.8827 34.7634 20.8827 34.4714V30.9672L25.0069 28.0332L25.3094 27.8107C25.3644 27.7272 25.3919 27.6299 25.3919 27.5326V22.0121C25.9005 21.8035 26.258 21.3029 26.258 20.7189C26.258 20.3574 26.1205 20.0236 25.9005 19.7733C26.6291 18.1186 27.0003 16.2831 27.0003 14.4336V14.4336ZM11.3831 0.959291C11.5068 0.820237 11.6855 0.736805 11.878 0.736805C12.2492 0.736805 12.5516 1.04272 12.5516 1.41817C12.5516 1.79362 12.2492 2.09954 11.878 2.09954C11.7405 2.09954 11.6168 2.05782 11.5068 1.98829C11.3281 1.86314 11.2044 1.65456 11.2044 1.43208C11.2044 1.2374 11.2731 1.07053 11.3831 0.959291V0.959291ZM14.4076 1.40427C14.4076 1.02882 14.71 0.7229 15.0812 0.7229C15.2737 0.7229 15.4386 0.806332 15.5624 0.931481C15.6723 1.05663 15.7411 1.20959 15.7411 1.39036C15.7411 1.61285 15.6311 1.82143 15.4524 1.94658C15.3424 2.03001 15.2187 2.07173 15.0674 2.07173C14.71 2.08563 14.4076 1.77971 14.4076 1.40427V1.40427ZM16.9921 6.75785C16.9921 6.79957 17.0059 6.82738 17.0059 6.85519L15.3287 7.49484V2.767C15.7411 2.69747 16.0848 2.44717 16.2772 2.09954C17.7482 2.43327 19.123 3.0312 20.3465 3.85162C20.3328 5.90962 19.5492 7.80076 18.3119 9.51113V7.78686C18.7655 7.66171 19.0955 7.25845 19.0955 6.75785C19.0955 6.17383 18.6281 5.68714 18.0369 5.68714C17.4595 5.70104 16.9921 6.17383 16.9921 6.75785V6.75785ZM2.04851 21.4142C1.88354 21.4142 1.73231 21.3446 1.60859 21.2473C1.47111 21.1222 1.37488 20.9414 1.37488 20.7467C1.37488 20.6633 1.38862 20.5798 1.41612 20.5103C1.51235 20.26 1.75981 20.0793 2.03476 20.0793C2.15849 20.0793 2.26847 20.121 2.3647 20.1766C2.55717 20.2878 2.69464 20.5103 2.69464 20.7606C2.69464 20.8858 2.6534 20.997 2.59841 21.0943C2.50218 21.289 2.29596 21.4142 2.04851 21.4142V21.4142ZM25.4194 21.15C25.2956 21.3029 25.1032 21.4142 24.897 21.4142C24.7045 21.4142 24.5395 21.3307 24.4158 21.2056C24.3058 21.0804 24.2371 20.9275 24.2371 20.7467C24.2371 20.4547 24.4158 20.2044 24.677 20.121C24.7457 20.0932 24.8282 20.0793 24.9107 20.0793C25.2269 20.0793 25.5018 20.3156 25.5706 20.6216C25.5843 20.6633 25.5843 20.705 25.5843 20.7606C25.5568 20.8997 25.5018 21.0387 25.4194 21.15V21.15ZM25.0069 19.3423C24.9657 19.3423 24.9245 19.3423 24.8832 19.3423C24.1133 19.3423 23.4947 19.968 23.4947 20.7467C23.4947 21.3446 23.8659 21.8591 24.402 22.0538V27.171L20.0716 30.258C19.9341 30.3554 19.8516 30.5222 19.8516 30.6891V33.637C19.8516 33.8039 19.7141 33.943 19.5492 33.943H17.9407C17.7757 33.943 17.6382 33.8039 17.6382 33.637V32.5802C17.6382 32.3021 17.4458 32.0518 17.1708 32.024C16.8546 31.9962 16.5934 32.2465 16.5934 32.5524V33.6509C16.5934 33.8178 16.456 33.9569 16.291 33.9569H14.3251C14.1601 33.9569 14.0226 33.8178 14.0226 33.6509V32.024C14.0226 31.7459 13.8302 31.4956 13.5552 31.4678C13.239 31.44 12.9778 31.6903 12.9778 31.9962V33.6649C12.9778 33.8317 12.8403 33.9708 12.6754 33.9708H10.7095C10.5445 33.9708 10.407 33.8317 10.407 33.6649V32.5802C10.407 32.3021 10.2146 32.0518 9.93961 32.024C9.62341 31.9962 9.36221 32.2465 9.36221 32.5524V33.6509C9.36221 33.8178 9.22473 33.9569 9.05976 33.9569H7.4513C7.28633 33.9569 7.14885 33.8178 7.14885 33.6509V30.703C7.14885 30.5361 7.06637 30.3693 6.92889 30.2719L2.61216 27.1849V22.0121C3.09332 21.7896 3.42326 21.3029 3.42326 20.7328C3.42326 20.6494 3.40952 20.5659 3.39577 20.4825C3.94567 20.2878 8.13868 18.7721 12.2629 16.1718C17.8445 12.6538 20.9377 8.6629 21.2951 4.5608C23.7009 6.52146 25.3644 9.35817 25.8455 12.5425C25.7768 19.5091 13.7752 23.8059 13.6514 23.8476C13.624 23.8615 13.5552 23.8754 13.5002 23.9032C13.349 23.8754 13.1978 23.8476 13.0328 23.8198C12.9228 23.792 12.7991 23.7781 12.6891 23.7503C12.5104 23.7225 12.3317 23.6808 12.153 23.639C12.1255 23.6251 12.0842 23.6251 12.0567 23.6251C11.988 23.6112 11.9193 23.5973 11.8505 23.5834C11.768 23.5695 11.6855 23.5417 11.6031 23.5278C11.4106 23.4861 11.2181 23.4444 11.0394 23.3887C10.6957 23.3053 10.3658 23.208 10.0358 23.1245C9.71965 23.0272 9.38971 22.9438 9.08726 22.8464C9.07351 22.8464 9.07351 22.8464 9.05976 22.8464C8.82606 22.7769 8.6061 22.7074 8.38613 22.6239C8.3174 22.5961 8.23491 22.5683 8.16617 22.5544C8.05619 22.5127 7.95996 22.4849 7.86373 22.4571C7.68501 22.4015 7.52004 22.3458 7.36881 22.2763H7.35507C7.10761 22.1929 6.88765 22.1094 6.69518 22.026C6.48897 21.9426 6.31025 21.8731 6.17278 21.8174C6.0353 21.7479 5.91157 21.7062 5.84284 21.6645C5.76035 21.6228 5.71911 21.6088 5.71911 21.6088C5.71911 21.6088 5.7466 21.6506 5.80159 21.7062C5.85658 21.7757 5.93907 21.873 6.0628 21.9843C6.17278 22.0955 6.324 22.2346 6.50272 22.3736C6.68144 22.5127 6.88765 22.6657 7.10761 22.8186C7.10761 22.8186 7.10761 22.8186 7.12136 22.8186C7.03887 23.0967 6.98388 23.4026 6.98388 23.7086C6.98388 25.3077 8.27615 26.6148 9.85712 26.6148C11.0807 26.6148 12.1255 25.8361 12.5379 24.7376C12.6754 24.7515 12.8266 24.7654 12.9641 24.7793C13.2115 24.7932 13.4452 24.7932 13.6652 24.7932C13.6789 24.7932 13.6927 24.8071 13.7064 24.8071L16.0298 27.1988C16.6209 27.7968 17.542 27.8941 18.2294 27.4352L21.8587 25.3772C22.1749 25.1686 22.3811 24.8071 22.3811 24.4177V20.1905C23.7834 19.0642 25.0482 17.7292 25.873 16.2135C25.7218 17.3121 25.4331 18.355 25.0069 19.3423V19.3423ZM11.4243 24.5985C11.3694 24.7098 11.2869 24.821 11.2181 24.9183C10.8882 25.3077 10.3933 25.558 9.84338 25.558C9.29347 25.558 8.79856 25.3077 8.46862 24.9183C8.19367 24.5985 8.04245 24.1814 8.04245 23.7364C8.04245 23.6251 8.05619 23.5278 8.06994 23.4166C8.2899 23.5278 8.52361 23.639 8.75732 23.7503C9.07351 23.8893 9.40345 24.0284 9.74714 24.1396C10.0908 24.2648 10.4483 24.3621 10.8057 24.4595C11.0119 24.5151 11.2181 24.5568 11.4243 24.5985V24.5985Z" fill="white"/>
</g>
<defs>
<clipPath id="clip0_208_8">
<rect width="27" height="35" fill="white"/>
</clipPath>
</defs>
</svg>
